<svg width="380" height="359" viewBox="0 0 380 359" version="1.1" xmlns="http://www.w3.org/2000/svg" xmlns:xlink="http://www.w3.org/1999/xlink" xmlns:figma="http://www.figma.com/figma/ns">
<title>Group</title>
<desc>Created using Figma</desc>
<g id="Canvas" transform="translate(-1221 2568)" figma:type="canvas">
<g id="Group" style="mix-blend-mode:normal;" figma:type="frame">
<g id="ja" style="mix-blend-mode:normal;" figma:type="text">
<use xlink:href="#path0_fill" transform="translate(1238 -2538)" style="mix-blend-mode:normal;"/>
</g>
<g id="2" style="mix-blend-mode:normal;" figma:type="text">
<use xlink:href="#path1_fill" transform="translate(1494 -2633)" fill="#2196F3" style="mix-blend-mode:normal;"/>
</g>
</g>
</g>
<defs>
<path id="path0_fill" d="M 64.2656 115.031L 64.2656 272.391C 64.1719 290.391 59.0156 304.266 48.7969 314.016C 38.5781 323.766 24.3281 328.641 6.04688 328.641C -1.82812 328.641 -9.28125 327.844 -16.3125 326.25L -16.3125 290.391C -10.875 291.234 -6.42188 291.656 -2.95312 291.656C 10.1719 291.656 16.7344 285.141 16.7344 272.109L 16.7344 115.031L 64.2656 115.031ZM 13.2188 75.7969C 13.2188 69.0469 15.6563 63.5156 20.5312 59.2031C 25.4063 54.8906 31.7344 52.7344 39.5156 52.7344C 47.2969 52.7344 53.625 54.8906 58.5 59.2031C 63.375 63.5156 65.8125 69.0469 65.8125 75.7969C 65.8125 82.5469 63.375 88.0781 58.5 92.3906C 53.625 96.7031 47.2969 98.8594 39.5156 98.8594C 31.7344 98.8594 25.4063 96.7031 20.5312 92.3906C 15.6563 88.0781 13.2188 82.5469 13.2188 75.7969ZM 188.426 267.188C 186.739 264.094 185.239 259.547 183.926 253.547C 175.207 264.516 163.02 270 147.364 270C 133.02 270 120.832 265.687 110.801 257.062C 100.77 248.344 95.7544 237.422 95.7544 224.297C 95.7544 207.797 101.848 195.328 114.036 186.891C 126.223 178.453 143.942 174.234 167.192 174.234L 181.817 174.234L 181.817 166.219C 181.817 152.25 175.77 145.266 163.676 145.266C 152.426 145.266 146.801 150.797 146.801 161.859L 99.4106 161.859C 99.4106 147.141 105.645 135.187 118.114 126C 130.676 116.812 146.661 112.219 166.067 112.219C 185.473 112.219 200.801 116.953 212.051 126.422C 223.301 135.891 229.067 148.875 229.348 165.375L 229.348 232.734C 229.536 246.703 231.692 257.391 235.817 264.797L 235.817 267.188L 188.426 267.188ZM 158.754 236.25C 164.661 236.25 169.536 234.984 173.379 232.453C 177.317 229.922 180.129 227.062 181.817 223.875L 181.817 199.547L 168.036 199.547C 151.536 199.547 143.286 206.953 143.286 221.766C 143.286 226.078 144.739 229.594 147.645 232.312C 150.551 234.938 154.254 236.25 158.754 236.25Z"/>
<path id="path1_fill" d="M 106.738 209.57L 9.76562 209.57L 9.76562 191.016L 55.7617 141.602C 59.3424 137.695 62.3698 134.147 64.8438 130.957C 67.3177 127.767 69.3034 124.87 70.8008 122.266C 72.3633 119.596 73.4701 117.122 74.1211 114.844C 74.8372 112.565 75.1953 110.352 75.1953 108.203C 75.1953 105.013 74.7396 102.181 73.8281 99.707C 72.9167 97.2331 71.6146 95.1497 69.9219 93.457C 68.2943 91.6992 66.3086 90.3646 63.9648 89.4531C 61.6862 88.5417 59.1471 88.0859 56.3477 88.0859C 48.8607 88.0859 43.2617 90.1693 39.5508 94.3359C 35.9049 98.5026 34.082 104.329 34.082 111.816L 6.83594 111.816C 6.83594 105.501 8.04036 99.5443 10.4492 93.9453C 12.8581 88.2812 16.2435 83.3333 20.6055 79.1016C 25.0326 74.8698 30.3385 71.5495 36.5234 69.1406C 42.7734 66.6667 49.6745 65.4297 57.2266 65.4297C 64.4531 65.4297 70.8333 66.4388 76.3672 68.457C 81.9661 70.4753 86.6211 73.3073 90.332 76.9531C 94.1081 80.599 96.9727 84.9935 98.9258 90.1367C 100.879 95.2148 101.855 100.846 101.855 107.031C 101.855 111.719 101.107 116.211 99.6094 120.508C 98.1771 124.74 96.0938 128.939 93.3594 133.105C 90.6901 137.272 87.4674 141.536 83.6914 145.898C 79.9154 150.195 75.7161 154.72 71.0938 159.473L 44.3359 187.793L 106.738 187.793L 106.738 209.57Z"/>
</defs>
</svg>
